<svg xmlns="http://www.w3.org/2000/svg" viewBox="0 0 22 22" role="img" aria-label="Base44">
  <path d="M19.0078 16.8166C19.1415 16.8166 19.2697 16.8697 19.3643 16.9643L19.5801 17.1801C19.7558 17.3559 19.7782 17.6344 19.6238 17.8291C17.6089 20.3701 14.4948 22 11 22C7.50517 22 4.39104 20.3702 2.37613 17.8291C2.22168 17.6344 2.24408 17.3559 2.41987 17.1801L2.63573 16.9643C2.73028 16.8697 2.8585 16.8166 2.9922 16.8166H19.0078Z" fill="#FF6A00"/>
  <path d="M11 0C17.0751 0 22 4.92487 22 11C22 11.4106 21.9774 11.816 21.9336 12.215C21.9213 12.3263 21.8704 12.4295 21.7912 12.5087L20.7478 13.5523C20.6532 13.6468 20.525 13.7 20.3913 13.7H1.60873C1.47501 13.7 1.34677 13.6468 1.25222 13.5523L0.20872 12.5087C0.129542 12.4295 0.0785807 12.3263 0.06635 12.215C0.0225114 11.816 0 11.4106 0 11C0 4.92487 4.92487 0 11 0Z" fill="#FF6A00"/>
</svg>
